# xmcd
#
# Track frame offsets: 
#        182
#        12985
#        26075
#        39130
#        50717
#        62312
#        73457
#        87912
#        98517
#        113440
#        123297
#        134257
#        147257
#        158837
#        170225
#        182762
#        195975
#        206772
#        219995
#        233710
#        244357
#        255397
#        267107
#        279807
#        293307
#        305532
#
# Disc length: 4196 seconds
#
# Revision: 15
# Processed by: cddbd v1.5.2PL0 Copyright (c) Steve Scherf et al.
# Submitted via: ExactAudioCopyFreeDBPlugin 1.0
#
DISCID=6710621a
DTITLE=Various Artist - The Complete Stax-Volt Singles, 1959-1975
DYEAR=1991
DGENRE=Soul
TTITLE0=Sam and Dave - You Got Me Hummin'
TTITLE1=Mable John - You're Taking Up Another Man's Place
TTITLE2=Carla Thomas - All I Want for Christmas is You
TTITLE3=The Charmels - Please Uncle Sam (Send Back My Man)
TTITLE4=Carla Thomas - Something Good (Is Going to Happen to You)
TTITLE5=Eddie Floyd - Raise Your Hand
TTITLE6=Johnnie Taylor - Ain't That Loving You (For More Reasons Than 
TTITLE6=One)
TTITLE7=The Mad Lads - I Don't Want to Lose Your Love
TTITLE8=Sam and Dave - When Something is Wrong with My Baby
TTITLE9=Bobby Wilson - Let Me Down Slow
TTITLE10=Booker T. and The M.G.'s - Hip Hug-Her
TTITLE11=William Bell - Everybody Loves a Winner
TTITLE12=Sir Mack Rice - Mini-Skirt Minnie
TTITLE13=Carla Thomas - When Tomorrow Comes
TTITLE14=Eddie Purrell - The Spoiler
TTITLE15=Otis Redding - I Love You More Than Words Can Say
TTITLE16=Ruby Johnson - If I Ever Needed Love (I Sure Do Need it Now)
TTITLE17=Mable John - Same Time Same Place
TTITLE18=Otis Redding and Carla Thomas - Tramp
TTITLE19=The Bar-Kays - Soul Finger
TTITLE20=The Bar-Kays - Knucklehead
TTITLE21=Otis Redding - Shake
TTITLE22=Albert King - Born Under a Bad Sign
TTITLE23=Sam and Dave - Soothe Me
TTITLE24=Sam and Dave - I Can't Stand Up
TTITLE25=Eddie Floyd - Don't Rock the Boat
EXTD=
EXTT0=
EXTT1=
EXTT2=
EXTT3=
EXTT4=
EXTT5=
EXTT6=
EXTT7=
EXTT8=
EXTT9=
EXTT10=
EXTT11=
EXTT12=
EXTT13=
EXTT14=
EXTT15=
EXTT16=
EXTT17=
EXTT18=
EXTT19=
EXTT20=
EXTT21=
EXTT22=
EXTT23=
EXTT24=
EXTT25=
PLAYORDER=
